<?xml version="1.0" standalone="no"?>
<!DOCTYPE svg PUBLIC "-//W3C//DTD SVG 20010904//EN"
 "http://www.w3.org/TR/2001/REC-SVG-20010904/DTD/svg10.dtd">
<svg version="1.0" xmlns="http://www.w3.org/2000/svg"
 width="512.000000pt" height="512.000000pt" viewBox="0 0 512.000000 512.000000"
 preserveAspectRatio="xMidYMid meet">

<g transform="translate(0.000000,512.000000) scale(0.100000,-0.100000)"
fill="#000000" stroke="none">
<path d="M2032 5097 c-22 -23 -22 -25 -22 -478 l0 -456 23 -21 c30 -28 68 -28
95 1 22 23 22 25 22 478 l0 456 -23 21 c-30 28 -68 28 -95 -1z"/>
<path d="M1125 4750 c-37 -41 -26 -63 191 -390 218 -328 220 -331 279 -316 25
6 51 57 42 80 -9 24 -387 599 -410 624 -26 28 -77 29 -102 2z"/>
<path d="M2944 4762 c-26 -16 -424 -635 -424 -658 0 -54 86 -87 122 -46 9 9
104 152 212 317 206 314 219 341 178 378 -19 17 -68 22 -88 9z"/>
<path d="M3723 4472 c-28 -10 -68 -31 -88 -46 -20 -16 -445 -438 -944 -938
l-907 -911 -78 409 c-44 225 -88 433 -98 462 -27 74 -111 162 -186 196 -199
88 -425 -7 -502 -211 -25 -66 -24 -136 4 -345 31 -235 39 -467 33 -1003 -4
-336 -10 -534 -17 -560 -6 -22 -47 -112 -91 -200 -61 -122 -82 -175 -89 -223
-10 -74 0 -155 27 -205 10 -19 208 -222 439 -450 397 -391 425 -416 475 -431
116 -35 229 -15 384 69 248 133 272 141 484 160 205 19 271 34 386 91 136 66
252 159 435 347 91 94 332 340 536 546 397 402 414 423 433 537 18 113 -15
219 -94 303 -51 55 -151 111 -197 111 -33 0 -32 -3 -12 45 84 203 -29 433
-242 491 -49 13 -64 21 -59 32 72 189 -18 394 -210 478 l-65 28 329 331 c387
387 386 386 386 545 0 81 -4 103 -26 150 -34 73 -106 145 -177 178 -76 35
-194 41 -269 14z m180 -133 c49 -13 115 -73 138 -124 24 -52 23 -119 -2 -175
-15 -35 -188 -214 -751 -777 -693 -694 -730 -733 -724 -760 4 -15 16 -36 28
-45 48 -41 53 -37 398 306 179 179 338 330 353 335 90 34 205 -12 262 -103 25
-41 30 -60 30 -110 -1 -38 -8 -74 -19 -96 -10 -19 -158 -175 -329 -347 -279
-280 -310 -315 -310 -344 0 -21 7 -38 22 -51 50 -40 58 -34 335 241 144 142
275 265 291 273 143 71 314 -35 315 -195 0 -26 -7 -64 -15 -85 -11 -24 -105
-127 -275 -297 -245 -246 -260 -263 -260 -297 0 -27 6 -41 22 -52 49 -35 62
-26 268 179 121 119 211 201 233 210 49 20 133 19 182 -4 102 -46 153 -175
110 -279 -11 -25 -117 -139 -319 -342 -167 -168 -376 -384 -466 -480 -196
-212 -316 -323 -434 -401 -141 -93 -217 -114 -486 -138 -149 -13 -222 -35
-362 -107 -236 -124 -244 -127 -323 -128 l-73 -1 -178 172 c-99 94 -288 281
-421 415 l-243 244 0 67 c0 64 3 74 74 210 117 225 115 217 128 662 15 539 -3
982 -53 1327 -15 100 -7 140 40 205 58 80 188 110 278 65 49 -25 97 -79 111
-124 6 -18 52 -247 102 -508 98 -509 102 -520 159 -520 21 0 214 188 1006 980
779 779 989 984 1021 995 47 17 87 18 137 4z"/>
</g>
</svg>
